<?xml version="1.0" encoding="UTF-8"?>
<svg width="100px" height="100px" viewBox="0 0 100 100" version="1.1" xmlns="http://www.w3.org/2000/svg" xmlns:xlink="http://www.w3.org/1999/xlink">
    <title>播放</title>
    <g id="首页-行情-买币" stroke="none" stroke-width="1" fill="none" fill-rule="evenodd">
        <g id="画板备份-5" transform="translate(-423.000000, -3186.000000)">
            <g id="编组-10" transform="translate(423.000000, 3186.000000)">
                <rect id="矩形" stroke="#FFFFFF" stroke-width="6" fill="#1DA2B4" x="3" y="3" width="94" height="94" rx="8"></rect>
                <path d="M58.4220003,36.6537397 L74.3253198,62.9287893 C75.4692179,64.8187079 74.8644488,67.2781022 72.9745302,68.4220003 C72.3498273,68.80011 71.6335391,69 70.9033195,69 L39.0966805,69 C36.8875415,69 35.0966805,67.209139 35.0966805,65 C35.0966805,64.2697804 35.2965705,63.5534922 35.6746802,62.9287893 L51.5779997,36.6537397 C52.7218978,34.7638211 55.1812921,34.159052 57.0712107,35.3029501 C57.6239611,35.6375095 58.0874409,36.1009892 58.4220003,36.6537397 Z" id="三角形" fill="#FFFFFF" transform="translate(55.000000, 50.000000) rotate(-270.000000) translate(-55.000000, -50.000000) "></path>
            </g>
        </g>
    </g>
</svg>