<?xml version="1.0" encoding="UTF-8"?>
<svg width="136px" height="140px" viewBox="0 0 136 140" version="1.1" xmlns="http://www.w3.org/2000/svg" xmlns:xlink="http://www.w3.org/1999/xlink">
    <title>编组</title>
    <defs>
        <path d="M136,0 L136,10 C132.686292,10 130,12.6637176 130,15.9495798 C130,19.235442 132.686292,21.8991597 136,21.8991597 L136,21.8991597 L136,25.1428571 C132.686292,25.1428571 130,27.8065748 130,31.092437 C130,34.3782992 132.686292,37.0420168 136,37.0420168 L136,37.0420168 L136,40.2857143 C132.686292,40.2857143 130,42.9494319 130,46.2352941 C130,49.5211563 132.686292,52.184874 136,52.184874 L136,52.184874 L136,55.4285714 C132.686292,55.4285714 130,58.0922891 130,61.3781513 C130,64.6640135 132.686292,67.3277311 136,67.3277311 L136,67.3277311 L136,70.5714286 C132.686292,70.5714286 130,73.2351462 130,76.5210084 C130,79.8068706 132.686292,82.4705882 136,82.4705882 L136,82.4705882 L136,85.7142857 C132.686292,85.7142857 130,88.3780033 130,91.6638655 C130,94.9497278 132.686292,97.6134454 136,97.6134454 L136,97.6134454 L136,100.857143 C132.686292,100.857143 130,103.52086 130,106.806723 C130,110.092585 132.686292,112.756303 136,112.756303 L136,112.756303 L136,116 C132.686292,116 130,118.663718 130,121.94958 C130,125.235442 132.686292,127.89916 136,127.89916 L136,127.89916 L136,140 L20,140 C8.954305,140 1.3527075e-15,131.045695 0,120 L0,20 C-1.3527075e-15,8.954305 8.954305,2.02906125e-15 20,0 L136,0 Z" id="path-1"></path>
        <linearGradient x1="50%" y1="1.15471687%" x2="50%" y2="100%" id="linearGradient-3">
            <stop stop-color="#FFFFFF" stop-opacity="0.176802202" offset="0%"></stop>
            <stop stop-color="#FFFFFF" stop-opacity="0" offset="100%"></stop>
        </linearGradient>
    </defs>
    <g id="页面-1" stroke="none" stroke-width="1" fill="none" fill-rule="evenodd">
        <g id="修改登录密码备份-2" transform="translate(-280.000000, -171.000000)">
            <g id="路径-40" transform="translate(280.000000, 171.000000)">
                <mask id="mask-2" fill="white">
                    <use xlink:href="#path-1"></use>
                </mask>
                <use id="形状结合" fill="#1da2b4" xlink:href="#path-1"></use>
                <path d="M80.2631216,-6 C84.1214222,-6 87.8067786,-4.41458091 90.4379996,-1.62269806 L146.263944,57.6150303 C151.245352,62.9007826 151.245352,71.0992174 146.263944,76.3849697 L90.4379996,135.6228 C87.8067786,138.414888 84.1214222,140 80.2631216,140 L55.2935962,140 C52.1409693,140 50.505824,136.279942 52.6557869,133.998852 L102.037608,81.6002044 L74.7484695,81.6002044 L47,52.3997956 L102.037608,52.3997956 L47,-6 L80.2631216,-6 Z M49.7061408,-65 C52.8587502,-65 54.4938865,-61.2799832 52.3440385,-58.9987498 L2.96279921,-6.6 L30.2516838,-6.6 L58,22.6 L2.96279921,22.6 L58,81 L24.7369591,81 C20.8785769,81 17.1935496,79.4148875 14.5624461,76.6228003 L-41.2636843,17.3851741 C-46.2454454,12.099013 -46.2454352,3.90098699 -41.263674,-1.38517409 L14.5624461,-60.6226674 C17.1935496,-63.4146116 20.8785769,-65 24.7369591,-65 L49.7061408,-65 Z" id="形状结合" fill="url(#linearGradient-3)" fill-rule="nonzero" mask="url(#mask-2)"></path>
            </g>
        </g>
    </g>
</svg>