<svg width="166" height="213" viewBox="0 0 166 213" fill="none" xmlns="http://www.w3.org/2000/svg">
<path d="M82.8241 165.648C128.567 165.648 165.648 128.567 165.648 82.8241C165.648 37.0816 128.567 0 82.8241 0C37.0816 0 0 37.0816 0 82.8241C0 128.567 37.0816 165.648 82.8241 165.648Z" fill="white"/>
<path d="M57.2253 91.2821L82.8242 21.2306L108.423 91.2821L82.7064 76.1005L57.2253 91.2821Z" fill="#F16534"/>
<path d="M108.423 103.348L82.8241 144L57.2253 103.348L82.9419 118.519L108.423 103.348Z" fill="#F16534"/>
<path d="M101.753 71.9251L101.881 72.1927C115.821 74.3875 121.934 78.7985 121.934 84.2802C121.934 87.9632 118.476 91.2607 112.085 93.6803L110.04 94.3977C103.423 96.5175 94.2157 97.7916 82.8349 97.7916C71.4433 97.7916 62.2252 96.5068 55.6087 94.3869L53.5852 93.6803C47.1935 91.2607 43.7354 87.9525 43.7354 84.2802C43.7354 78.7985 49.8487 74.3875 63.7883 72.1927L63.9168 71.9251C40.3736 74.7837 29.5709 82.3423 29.5709 91.0573C29.5709 101.828 49.7416 111.356 82.8455 111.356C115.949 111.356 136.12 101.839 136.12 91.0573C136.099 82.3423 125.296 74.7837 101.753 71.9251Z" fill="#F16534"/>
<path d="M55.6764 180.72V201.308C55.6764 201.897 55.8049 202.453 56.0512 203C56.3081 203.546 56.6721 204.027 57.1646 204.434C57.6571 204.852 58.2781 205.184 59.0168 205.43C59.7663 205.687 60.6228 205.805 61.6077 205.805C62.5606 205.805 63.4171 205.676 64.1559 205.43C64.8946 205.173 65.5263 204.841 66.0295 204.434C66.5327 204.027 66.9181 203.546 67.1643 203C67.4213 202.453 67.539 201.886 67.539 201.308V180.72H75.194V201.747C75.194 203.417 74.8514 204.905 74.1555 206.19C73.4596 207.475 72.5068 208.567 71.2862 209.455C70.0657 210.344 68.6311 211.029 66.9823 211.49C65.3335 211.95 63.5349 212.186 61.597 212.186C59.6592 212.186 57.8498 211.95 56.1903 211.49C54.5309 211.029 53.0962 210.344 51.8864 209.455C50.6766 208.567 49.7237 207.475 49.0385 206.19C48.3426 204.905 48 203.417 48 201.747V180.72H55.6764Z" fill="#F16534"/>
<path d="M106.735 187.347H88.8981C88.0952 187.347 87.3992 187.55 86.7997 187.946C86.2001 188.343 85.9004 189.049 85.9004 190.066C85.9004 191.073 86.2108 191.79 86.8425 192.197C87.4635 192.604 88.1808 192.818 88.9731 192.818H99.1441C100.043 192.818 101.039 192.946 102.12 193.193C103.202 193.449 104.197 193.921 105.129 194.606C106.06 195.302 106.831 196.255 107.442 197.475C108.052 198.696 108.362 200.291 108.362 202.261C108.362 204.231 108.052 205.826 107.442 207.068C106.831 208.31 106.06 209.273 105.129 209.959C104.197 210.655 103.191 211.126 102.12 211.372C101.039 211.629 100.054 211.747 99.1441 211.747H79.316V205.119H97.4632C98.309 205.119 99.037 204.916 99.6152 204.52C100.204 204.124 100.493 203.364 100.493 202.25C100.493 201.158 100.193 200.419 99.5938 200.012C98.9942 199.616 98.2555 199.413 97.3775 199.413H87.2065C86.2751 199.413 85.2794 199.295 84.2195 199.049C83.1596 198.813 82.1532 198.353 81.2217 197.668C80.2903 196.993 79.5194 196.04 78.9091 194.82C78.2989 193.599 77.9884 192.004 77.9884 190.034C77.9884 188.064 78.2989 186.48 78.9091 185.27C79.5194 184.06 80.2903 183.118 81.2217 182.433C82.1532 181.758 83.1489 181.298 84.2195 181.052C85.2794 180.816 86.2751 180.688 87.2065 180.688H106.713V187.347H106.735Z" fill="#F16534"/>
<path d="M115.118 176.48C115.45 176.48 115.803 176.533 116.178 176.63C116.553 176.726 116.895 176.898 117.206 177.144C117.516 177.39 117.773 177.733 117.977 178.161C118.18 178.589 118.276 179.124 118.276 179.778C118.276 180.441 118.18 180.977 117.977 181.394C117.773 181.812 117.516 182.144 117.206 182.39C116.895 182.636 116.553 182.797 116.178 182.893C115.803 182.989 115.45 183.032 115.118 183.032H112.152C111.992 183.032 111.842 183.054 111.703 183.086C111.553 183.118 111.424 183.182 111.307 183.279C111.189 183.364 111.092 183.482 111.017 183.632C110.943 183.782 110.91 183.953 110.91 184.156V185.034H118.073V187.358H108.223V184.156C108.223 183.728 108.287 183.311 108.416 182.904C108.544 182.497 108.737 182.144 109.005 181.833C109.272 181.523 109.615 181.276 110.032 181.084C110.45 180.902 110.943 180.805 111.521 180.805H114.229C114.572 180.805 114.85 180.73 115.054 180.57C115.257 180.409 115.364 180.152 115.364 179.799C115.364 179.446 115.257 179.189 115.054 179.039C114.85 178.889 114.572 178.803 114.229 178.803H108.416V176.48H115.118Z" fill="#F16534"/>
</svg>
