<?xml version="1.0" standalone="no"?><!DOCTYPE svg PUBLIC "-//W3C//DTD SVG 1.1//EN" "http://www.w3.org/Graphics/SVG/1.1/DTD/svg11.dtd"><svg t="1631526521442" class="icon" viewBox="0 0 1024 1024" version="1.1" xmlns="http://www.w3.org/2000/svg" p-id="9283" xmlns:xlink="http://www.w3.org/1999/xlink" width="200" height="200"><defs><style type="text/css">@font-face { font-family: element-icons; src: url("chrome-extension://dkbiiofameebehokbgjmdcholafphbnl/fonts/element-icons.woff") format("woff"), url("chrome-extension://dkbiiofameebehokbgjmdcholafphbnl/fonts/element-icons.ttf ") format("truetype"); }
</style></defs><path d="M320.8112 21.930667A68.949333 68.949333 0 0 1 371.2432 0h123.758933c15.624533 0 23.726933 18.6368 13.073067 30.0672L263.322133 292.573867h135.253334l137.531733 146.286933H263.322133l272.785067 292.573867H371.2432a68.949333 68.949333 0 0 1-50.432-21.930667L44.117867 412.736c-24.6912-26.4832-24.6912-67.554133 0-94.037333L320.8112 21.930667z" fill="#0B0E11" p-id="9284"></path><path d="M701.193067 1002.069333a68.949333 68.949333 0 0 1-50.427734 21.930667h-123.758933c-15.624533 0-23.726933-18.6368-13.073067-30.0672l244.753067-262.506667h-135.253333l-137.531734-146.286933h272.785067L485.901333 292.565333h164.864c19.1232 0 37.3888 7.944533 50.427734 21.930667l276.6976 296.768c24.6912 26.4832 24.6912 67.554133 0 94.037333l-276.6976 296.768z" fill="#0B0E11" p-id="9285"></path></svg>