<?xml version="1.0" encoding="utf-8"?>
<!-- Generator: Adobe Illustrator 22.1.0, SVG Export Plug-In . SVG Version: 6.00 Build 0)  -->
<svg version="1.1" id="图层_1" xmlns="http://www.w3.org/2000/svg" xmlns:xlink="http://www.w3.org/1999/xlink" x="0px" y="0px"
	 viewBox="0 0 36 36" style="enable-background:new 0 0 36 36;" xml:space="preserve">
<style type="text/css">
	.st0{fill:#D8D8D8;fill-opacity:0;}
	.st1{fill:none;stroke:#212833;stroke-width:2;}
	.st2{fill:none;stroke:#1DA2B4;stroke-width:2;stroke-linecap:round;}
	.st3{fill:#212833;}
</style>
<title>手机验证</title>
<g id="个人中心">
	<g id="账户里有余额" transform="translate(-596.000000, -390.000000)">
		<g id="编组-27" transform="translate(280.000000, 289.000000)">
			<g id="手机验证" transform="translate(316.000000, 101.000000)">
				<rect id="矩形" class="st0" width="36" height="36"/>
				<rect id="矩形_1_" x="3" y="3" class="st0" width="30" height="30"/>
				<path id="矩形_2_" class="st1" d="M9,4h17c1.1,0,2,0.9,2,2v24c0,1.1-0.9,2-2,2H9c-1.1,0-2-0.9-2-2V6C7,4.9,7.9,4,9,4z"/>
				<line id="路径-6" class="st1" x1="8" y1="23.8" x2="28" y2="23.8"/>
				<polyline id="路径-5" class="st2" points="13,15.7 16.5,18 22,13 				"/>
				<path id="矩形_3_" class="st3" d="M16,27h3c0.6,0,1,0.4,1,1l0,0c0,0.6-0.4,1-1,1h-3c-0.6,0-1-0.4-1-1l0,0
					C15,27.4,15.4,27,16,27z"/>
			</g>
		</g>
	</g>
</g>
</svg>
