<?xml version="1.0" encoding="utf-8"?>
<!-- Generator: Adobe Illustrator 22.1.0, SVG Export Plug-In . SVG Version: 6.00 Build 0)  -->
<svg version="1.1" id="图层_1" xmlns="http://www.w3.org/2000/svg" xmlns:xlink="http://www.w3.org/1999/xlink" x="0px" y="0px"
	 viewBox="0 0 36 36" style="enable-background:new 0 0 36 36;" xml:space="preserve">
<style type="text/css">
	.st0{fill:#D8D8D8;fill-opacity:0;}
	.st1{fill:none;stroke:#212833;stroke-width:2;}
	.st2{fill:none;stroke:#1DA2B4;stroke-width:2;stroke-linecap:round;}
</style>
<title>邮箱验证</title>
<g id="个人中心">
	<g id="账户里有余额" transform="translate(-314.000000, -390.000000)">
		<g id="邮箱验证" transform="translate(34.000000, 101.000000)">
			<rect id="矩形" x="280" y="289" class="st0" width="36" height="36"/>
			<rect id="矩形_1_" x="283" y="292" class="st0" width="30" height="30"/>
			<path id="路径" class="st1" d="M311,308l-12.2,5.6c-0.5,0.2-1.1,0.2-1.7,0L285,308l0,0"/>
			<path id="路径_1_" class="st1" d="M289.1,303H287c-1.1,0-2,0.9-2,2v14c0,1.1,0.9,2,2,2h22c1.1,0,2-0.9,2-2v-14c0-1.1-0.9-2-2-2
				h-2.2l0,0"/>
			<path id="路径_2_" class="st1" d="M289,310v-14c0-1.1,0.9-2,2-2h14c1.1,0,2,0.9,2,2v14l0,0"/>
			<line id="路径_3_" class="st2" x1="293" y1="299" x2="303" y2="299"/>
			<line id="路径_4_" class="st2" x1="293" y1="304" x2="301" y2="304"/>
		</g>
	</g>
</g>
</svg>
