<?xml version="1.0" encoding="utf-8"?>
<!-- Generator: Adobe Illustrator 22.1.0, SVG Export Plug-In . SVG Version: 6.00 Build 0)  -->
<svg version="1.1" id="图层_1" xmlns="http://www.w3.org/2000/svg" xmlns:xlink="http://www.w3.org/1999/xlink" x="0px" y="0px"
	 viewBox="0 0 36 36" style="enable-background:new 0 0 36 36;" xml:space="preserve">
<style type="text/css">
	.st0{fill:#D8D8D8;fill-opacity:0;}
	.st1{fill-opacity:0;}
	.st2{fill:#212833;}
	.st3{fill:none;stroke:#212833;stroke-width:2;}
	.st4{fill:#1DA2B4;}
</style>
<title>谷歌</title>
<g id="个人中心">
	<g id="编组-27" transform="translate(280.000000, 289.000000)">
		<g id="谷歌" transform="translate(34.000000, 212.000000)">
			<rect id="矩形" x="-314" y="-501" class="st0" width="36" height="36"/>
			<rect id="矩形_1_" x="-311" y="-498" class="st0" width="30" height="30"/>
			<rect id="矩形_2_" x="-308" y="-495" class="st1" width="25" height="25"/>
			<path id="形状" class="st2" d="M-299.8-472C-299.9-472-299.9-472-299.8-472c0,0-0.1,0-0.1,0c-0.4,0-1.7,0-2.9-0.6
				c-1.4-0.7-2.1-1.8-2.1-3.4c0-1.6,0.8-2.7,2.4-3.4c1.4-0.6,3-0.6,3.6-0.6l0.7,0l-0.4-0.5c-0.8-1-0.6-2.1-0.6-2.1l0.1-0.4l-0.4,0
				c-0.1,0-0.2,0-0.3,0c-0.5,0-1.5-0.1-2.4-0.6c-1-0.7-1.6-1.9-1.6-3.5c0-1.9,0.8-3.3,2.5-4.1c1.2-0.6,2.5-0.7,2.6-0.7l3.5,0.1
				c0,0-0.9,0.3-1.1,0.4l-0.5,0.3l0.5,0.3c1.2,0.6,1.4,1.6,1.4,3.3c0,1.9-0.8,2.8-1.4,3.5c-0.5,0.5-1,0.9-1,1.5
				c0,0.6,0.6,1.1,1.3,1.7c0.5,0.5,1.1,1,1.5,1.6c0.5,0.7,0.8,1.5,0.8,2.4c0,1-0.2,1.9-0.6,2.6c-0.4,0.7-1,1.3-1.9,1.7
				c-1.3,0.7-2.7,0.7-3.3,0.7C-299.8-472-299.8-472-299.8-472z M-299.6-479c-1,0.1-1.8,0.5-2.5,1.1c-0.7,0.6-1,1.5-0.9,2.3
				c0.1,1.5,1.5,2.6,3.4,2.6c0.1,0,0.3,0,0.4,0c2-0.2,3.3-1.5,3.2-3.1c-0.1-1.7-1.4-2.8-3.2-2.8C-299.4-479-299.5-479-299.6-479z
				 M-300.5-490.9c-0.6,0.2-1.1,0.7-1.4,1.5c-0.3,0.8-0.3,1.6-0.1,2.5c0.2,0.8,0.6,1.5,1,2c0.5,0.5,1.1,0.8,1.6,0.8
				c0.2,0,0.3,0,0.5-0.1c0.6-0.2,1.2-0.8,1.5-1.6c0.3-0.8,0.3-1.8,0.1-2.7c-0.5-1.8-1.3-2.6-2.8-2.6
				C-300.1-490.9-300.3-490.9-300.5-490.9z"/>
			<circle id="椭圆形" class="st3" cx="-296" cy="-482" r="15"/>
			<path id="形状结合" class="st4" d="M-289-487c0.6,0,1,0.4,1,1v3h3c0.6,0,1,0.4,1,1s-0.4,1-1,1h-3v3c0,0.6-0.4,1-1,1
				s-1-0.4-1-1v-3h-3c-0.6,0-1-0.4-1-1s0.4-1,1-1h3v-3C-290-486.6-289.6-487-289-487z"/>
		</g>
	</g>
</g>
</svg>
