<?xml version="1.0" encoding="utf-8"?>
<!-- Generator: Adobe Illustrator 22.1.0, SVG Export Plug-In . SVG Version: 6.00 Build 0)  -->
<svg version="1.1" id="图层_1" xmlns="http://www.w3.org/2000/svg" xmlns:xlink="http://www.w3.org/1999/xlink" x="0px" y="0px"
	 viewBox="0 0 36 36" style="enable-background:new 0 0 36 36;" xml:space="preserve">
<style type="text/css">
	.st0{fill:#D8D8D8;fill-opacity:0;}
	.st1{fill:none;stroke:#212833;stroke-width:2;stroke-linecap:round;}
	.st2{fill:none;stroke:#1DA2B4;stroke-width:2;stroke-linecap:round;}
</style>
<title>防钓鱼码</title>
<g id="个人中心">
	<g id="编组-27" transform="translate(280.000000, 289.000000)">
		<g id="防钓鱼码" transform="translate(316.000000, 212.000000)">
			<rect id="矩形" x="-596" y="-501" class="st0" width="36" height="36"/>
			<rect id="矩形_1_" x="-593" y="-498" class="st0" width="30" height="30"/>
			<g id="编组-13" transform="translate(4.000000, 5.000000)">
				<path id="路径" class="st1" d="M-589.9-500.5c-3.4,2.6-5.6,6.8-5.6,11.5c0,8,6.3,14.4,14,14.4s14-6.5,14-14.4
					c0-4.7-2.2-8.9-5.6-11.6"/>
				<path id="路径-8" class="st2" d="M-582-500.5c0.6,2.2,0.1,4.5-1.3,6.2l-1.8,2.3c-1.4,1.7-1.2,4.2,0.3,5.8
					c1.6,1.6,4.1,1.8,6,0.6l0,0c1.9-1.3,2.5-3.7,1.6-5.8l-0.5-1l0,0l-0.1,1l-0.9,0.9"/>
				<line id="路径-10" class="st1" x1="-574.5" y1="-481" x2="-588.5" y2="-481"/>
			</g>
			<g id="编组-5" transform="translate(12.000000, 6.000000)">
			</g>
		</g>
	</g>
</g>
</svg>
