<?xml version="1.0" encoding="utf-8"?>
<!-- Generator: Adobe Illustrator 22.1.0, SVG Export Plug-In . SVG Version: 6.00 Build 0)  -->
<svg version="1.1" id="图层_1" xmlns="http://www.w3.org/2000/svg" xmlns:xlink="http://www.w3.org/1999/xlink" x="0px" y="0px"
	 viewBox="0 0 36 36" style="enable-background:new 0 0 36 36;" xml:space="preserve">
<style type="text/css">
	.st0{fill:#D8D8D8;fill-opacity:0;}
	.st1{fill:none;stroke:#212833;stroke-width:2;}
	.st2{fill:none;stroke:#1DA2B4;stroke-width:2;stroke-linecap:round;}
</style>
<title>资金密码</title>
<g id="账户里有余额" transform="translate(-313.000000, -612.000000)">
	<g id="编组-27" transform="translate(280.000000, 289.000000)">
		<g id="资金密码" transform="translate(33.000000, 323.000000)">
			<rect id="矩形" class="st0" width="36" height="36"/>
			<rect id="矩形_1_" x="3" y="3" class="st0" width="30" height="30"/>
			<g id="web__谷歌验证" transform="translate(5.000000, 4.000000)">
				<path id="椭圆形" class="st1" d="M13.3,28l4.5-2c5-2.3,8.2-7.3,8.2-12.8V2c0-1.1-0.9-2-2-2H2C0.9,0,0,0.9,0,2v11.1
					c0,5.6,3.3,10.6,8.4,12.8L13.3,28L13.3,28z"/>
				<g id="编组" transform="translate(7.000000, 6.000000)">
					<line id="路径-7" class="st2" x1="0" y1="5" x2="12" y2="5"/>
					<line id="路径-7备份" class="st2" x1="0" y1="10" x2="12" y2="10"/>
					<line id="路径-7_1_" class="st2" x1="7" y1="5" x2="11" y2="0"/>
					<line id="路径-7备份-3" class="st2" x1="5" y1="5" x2="1" y2="0"/>
					<line id="路径-7备份-2" class="st2" x1="6" y1="15" x2="6" y2="5"/>
				</g>
			</g>
		</g>
	</g>
</g>
</svg>
